<svg width="25" height="24" viewBox="0 0 25 24" fill="none" xmlns="http://www.w3.org/2000/svg">
<path d="M12.5 2C14.8869 2 17.1761 2.94821 18.864 4.63604C20.5518 6.32387 21.5 8.61305 21.5 11V18.5C21.5004 19.2479 21.2611 19.9763 20.8173 20.5784C20.3735 21.1804 19.7486 21.6245 19.034 21.8455C18.3194 22.0664 17.5529 22.0527 16.8467 21.8062C16.1406 21.5598 15.5319 21.0936 15.11 20.476C14.8488 20.9387 14.4693 21.3236 14.0105 21.5915C13.5516 21.8594 13.0298 22.0005 12.4985 22.0005C11.9672 22.0005 11.4454 21.8594 10.9865 21.5915C10.5277 21.3236 10.1482 20.9387 9.887 20.476C9.47402 21.0788 8.8827 21.5373 8.19598 21.7871C7.50927 22.0369 6.76158 22.0655 6.0578 21.8689C5.35401 21.6722 4.72941 21.2603 4.2716 20.6907C3.81379 20.1212 3.54572 19.4226 3.505 18.693L3.5 18.499V11C3.5 8.61305 4.44821 6.32387 6.13604 4.63604C7.82387 2.94821 10.1131 2 12.5 2ZM12.5 4C10.685 3.99997 8.94098 4.70489 7.63577 5.96607C6.33056 7.22726 5.56623 8.94609 5.504 10.76L5.5 11V18.446L5.502 18.584C5.51923 18.8838 5.62604 19.1715 5.8086 19.4099C5.99116 19.6483 6.24107 19.8264 6.52599 19.9212C6.81091 20.016 7.11773 20.0231 7.40672 19.9416C7.69572 19.8601 7.95361 19.6937 8.147 19.464L8.235 19.348C8.42648 19.0672 8.68636 18.8399 8.99009 18.6874C9.29382 18.535 9.63139 18.4624 9.97094 18.4766C10.3105 18.4908 10.6408 18.5913 10.9307 18.7687C11.2207 18.946 11.4606 19.1942 11.628 19.49C11.7147 19.6443 11.8409 19.7728 11.9936 19.8623C12.1463 19.9518 12.3201 19.9992 12.4971 19.9995C12.6741 19.9998 12.8481 19.9531 13.0011 19.8641C13.1541 19.7751 13.2807 19.647 13.368 19.493C13.5281 19.2088 13.7552 18.9681 14.0296 18.7919C14.3041 18.6156 14.6174 18.5091 14.9424 18.4817C15.2674 18.4543 15.5942 18.5068 15.8943 18.6346C16.1943 18.7624 16.4586 18.9617 16.664 19.215L16.761 19.345C16.9346 19.5999 17.1826 19.7952 17.4711 19.9041C17.7597 20.013 18.0748 20.0303 18.3735 19.9537C18.6723 19.8771 18.9402 19.7102 19.1407 19.4759C19.3412 19.2415 19.4645 18.951 19.494 18.644L19.5 18.5V11C19.5 9.14348 18.7625 7.36301 17.4497 6.05025C16.137 4.7375 14.3565 4 12.5 4ZM16.5 13C16.5 14.0436 16.0922 15.0458 15.3636 15.7929C14.635 16.54 13.6433 16.9727 12.6 16.9988C11.5568 17.0249 10.5447 16.6423 9.77963 15.9326C9.01457 15.2228 8.55716 14.2422 8.505 13.2L8.5 13H10.5C10.5 13.5304 10.7107 14.0391 11.0858 14.4142C11.4609 14.7893 11.9696 15 12.5 15C13.0304 15 13.5391 14.7893 13.9142 14.4142C14.2893 14.0391 14.5 13.5304 14.5 13H16.5ZM12.5 7C13.0304 7 13.5391 7.21071 13.9142 7.58579C14.2893 7.96086 14.5 8.46957 14.5 9C14.5 9.53043 14.2893 10.0391 13.9142 10.4142C13.5391 10.7893 13.0304 11 12.5 11C11.9696 11 11.4609 10.7893 11.0858 10.4142C10.7107 10.0391 10.5 9.53043 10.5 9C10.5 8.46957 10.7107 7.96086 11.0858 7.58579C11.4609 7.21071 11.9696 7 12.5 7Z" fill="black" fill-opacity="0.7"/>
</svg>
