<svg width="25" height="24" viewBox="0 0 25 24" fill="none" xmlns="http://www.w3.org/2000/svg">
<path d="M20.5 22H4.5C4.23478 22 3.98043 21.8946 3.79289 21.7071C3.60536 21.5196 3.5 21.2652 3.5 21V3C3.5 2.73478 3.60536 2.48043 3.79289 2.29289C3.98043 2.10536 4.23478 2 4.5 2H20.5C20.7652 2 21.0196 2.10536 21.2071 2.29289C21.3946 2.48043 21.5 2.73478 21.5 3V21C21.5 21.2652 21.3946 21.5196 21.2071 21.7071C21.0196 21.8946 20.7652 22 20.5 22ZM19.5 20V4H5.5V20H19.5ZM9.5 6V8C9.5 8.79565 9.81607 9.55871 10.3787 10.1213C10.9413 10.6839 11.7044 11 12.5 11C13.2956 11 14.0587 10.6839 14.6213 10.1213C15.1839 9.55871 15.5 8.79565 15.5 8V6H17.5V8C17.5 9.32608 16.9732 10.5979 16.0355 11.5355C15.0979 12.4732 13.8261 13 12.5 13C11.1739 13 9.90215 12.4732 8.96447 11.5355C8.02678 10.5979 7.5 9.32608 7.5 8V6H9.5Z" fill="black" fill-opacity="0.7"/>
</svg>
