<svg width="25" height="24" viewBox="0 0 25 24" fill="none" xmlns="http://www.w3.org/2000/svg">
<path d="M17.6428 12H7.35712V17.1429H17.6428V12Z" fill="url(#paint0_linear_177_1004)"/>
<path d="M12.5 2C14.8869 2 17.1761 2.94821 18.864 4.63604C20.5518 6.32387 21.5 8.61305 21.5 11V18.5C21.5004 19.2479 21.2611 19.9763 20.8173 20.5784C20.3735 21.1804 19.7486 21.6245 19.034 21.8455C18.3194 22.0664 17.5529 22.0527 16.8467 21.8062C16.1406 21.5598 15.5319 21.0936 15.11 20.476C14.8488 20.9387 14.4693 21.3236 14.0105 21.5915C13.5516 21.8594 13.0298 22.0005 12.4985 22.0005C11.9672 22.0005 11.4454 21.8594 10.9865 21.5915C10.5277 21.3236 10.1482 20.9387 9.887 20.476C9.47402 21.0788 8.8827 21.5373 8.19598 21.7871C7.50927 22.0369 6.76158 22.0655 6.0578 21.8689C5.35401 21.6722 4.72941 21.2603 4.2716 20.6907C3.81379 20.1212 3.54572 19.4226 3.505 18.693L3.5 18.499V11C3.5 8.61305 4.44821 6.32387 6.13604 4.63604C7.82387 2.94821 10.1131 2 12.5 2ZM16.5 13H14.5C14.5023 13.519 14.3028 14.0185 13.9436 14.3932C13.5844 14.7678 13.0937 14.9881 12.5751 15.0075C12.0564 15.027 11.5506 14.8441 11.1643 14.4975C10.778 14.1509 10.5416 13.6677 10.505 13.15L10.5 13H8.5L8.505 13.2C8.5563 14.225 8.99958 15.191 9.74317 15.8983C10.4868 16.6056 11.4737 17.0001 12.5 17.0001C13.5263 17.0001 14.5132 16.6056 15.2568 15.8983C16.0004 15.191 16.4437 14.225 16.495 13.2L16.5 13ZM12.5 7C11.9696 7 11.4609 7.21071 11.0858 7.58579C10.7107 7.96086 10.5 8.46957 10.5 9C10.5 9.53043 10.7107 10.0391 11.0858 10.4142C11.4609 10.7893 11.9696 11 12.5 11C13.0304 11 13.5391 10.7893 13.9142 10.4142C14.2893 10.0391 14.5 9.53043 14.5 9C14.5 8.46957 14.2893 7.96086 13.9142 7.58579C13.5391 7.21071 13.0304 7 12.5 7Z" fill="black" fill-opacity="0.9"/>
<defs>
<linearGradient id="paint0_linear_177_1004" x1="16.2519" y1="14.5714" x2="7.35712" y2="14.5714" gradientUnits="userSpaceOnUse">
<stop offset="0.108964" stop-color="#78F9CD"/>
<stop offset="1" stop-color="#F3FA68"/>
</linearGradient>
</defs>
</svg>
