<svg width="25" height="24" viewBox="0 0 25 24" fill="none" xmlns="http://www.w3.org/2000/svg">
<path d="M17.5 5H6.5V13H17.5V5Z" fill="url(#paint0_linear_177_1011)"/>
<path d="M20.5 22H4.5C4.23478 22 3.98043 21.8946 3.79289 21.7071C3.60536 21.5196 3.5 21.2652 3.5 21V3C3.5 2.73478 3.60536 2.48043 3.79289 2.29289C3.98043 2.10536 4.23478 2 4.5 2H20.5C20.7652 2 21.0196 2.10536 21.2071 2.29289C21.3946 2.48043 21.5 2.73478 21.5 3V21C21.5 21.2652 21.3946 21.5196 21.2071 21.7071C21.0196 21.8946 20.7652 22 20.5 22ZM9.5 6H7.5V8C7.5 9.32608 8.02678 10.5979 8.96447 11.5355C9.90215 12.4732 11.1739 13 12.5 13C13.8261 13 15.0979 12.4732 16.0355 11.5355C16.9732 10.5979 17.5 9.32608 17.5 8V6H15.5V8C15.5 8.79565 15.1839 9.55871 14.6213 10.1213C14.0587 10.6839 13.2956 11 12.5 11C11.7044 11 10.9413 10.6839 10.3787 10.1213C9.81607 9.55871 9.5 8.79565 9.5 8V6Z" fill="black" fill-opacity="0.9"/>
<defs>
<linearGradient id="paint0_linear_177_1011" x1="16.0124" y1="9" x2="6.5" y2="9" gradientUnits="userSpaceOnUse">
<stop offset="0.108964" stop-color="#78F9CD"/>
<stop offset="1" stop-color="#F3FA68"/>
</linearGradient>
</defs>
</svg>
