<svg width="48" height="48" viewBox="0 0 48 48" fill="none" xmlns="http://www.w3.org/2000/svg">
<g clip-path="url(#clip0_368_4346)">
<rect width="48" height="48" rx="16.5517" fill="#1A1A1A"/>
<path d="M52.7688 21.2073C44.9225 19.7361 33.9603 12.6884 36.1839 2.96259C38.7878 -8.42605 50.5729 5.84291 36.184 8.59317C23.388 11.0389 21.9944 -5.32941 23.3451 -7.80779" stroke="white" stroke-opacity="0.1" stroke-width="1.24138"/>
<path d="M-11.8652 24.0512C-3.902 23.4889 8.48691 27.533 8.79692 37.5049C9.15992 49.1818 -5.85256 38.3597 7.37199 32.0577C19.1325 26.4533 32.7578 47.7491 32.0783 50.4887" stroke="white" stroke-opacity="0.1" stroke-width="1.24138"/>
<g filter="url(#filter0_d_368_4346)">
<path fill-rule="evenodd" clip-rule="evenodd" d="M31.2608 36.5553H37.2735C38.6361 36.5553 39.39 34.9755 38.533 33.9162L34.6206 29.0805C34.8175 28.9166 35.0048 28.7425 35.1826 28.5582C35.3604 28.3739 35.5275 28.1806 35.684 27.9781C35.8405 27.7756 35.9854 27.5652 36.1188 27.347C36.2522 27.1289 36.3732 26.9041 36.4819 26.6727C36.5905 26.4413 36.6862 26.2048 36.7688 25.963C36.8514 25.7213 36.9206 25.4758 36.9762 25.2265C37.0319 24.9772 37.0737 24.7257 37.1017 24.4718C37.1297 24.218 37.1437 23.9634 37.1437 23.7081C37.1437 23.5934 37.1409 23.4788 37.1352 23.3643C37.1296 23.2497 37.1211 23.1354 37.1098 23.0212C37.0985 22.9071 37.0843 22.7933 37.0674 22.6799C37.0505 22.5664 37.0308 22.4535 37.0083 22.341C36.9858 22.2285 36.9605 22.1166 36.9325 22.0054C36.9045 21.8941 36.8737 21.7837 36.8402 21.6739C36.8068 21.5641 36.7706 21.4553 36.7317 21.3473C36.6928 21.2393 36.6513 21.1324 36.6072 21.0264C36.563 20.9205 36.5163 20.8156 36.467 20.712C36.4177 20.6083 36.3658 20.5059 36.3115 20.4047C36.2571 20.3036 36.2002 20.2038 36.1409 20.1055C36.0816 20.0071 36.0199 19.9102 35.9558 19.8149C35.8917 19.7196 35.8253 19.6258 35.7566 19.5337C35.6879 19.4416 35.6169 19.3512 35.5437 19.2625C35.4705 19.1739 35.3952 19.0871 35.3177 19.0021C35.2403 18.9171 35.1608 18.8341 35.0792 18.753C34.9976 18.6719 34.9141 18.5928 34.8286 18.5158C34.7432 18.4388 34.6558 18.3639 34.5667 18.2912C34.4775 18.2184 34.3866 18.1479 34.2939 18.0796C34.2013 18.0112 34.107 17.9452 34.0111 17.8815C33.9152 17.8178 33.8177 17.7565 33.7188 17.6975C33.6198 17.6385 33.5195 17.582 33.4177 17.528C33.316 17.4739 33.213 17.4224 33.1087 17.3733C33.0045 17.3243 32.899 17.2778 32.7924 17.2339C32.6859 17.1901 32.5783 17.1488 32.4696 17.1102C32.361 17.0715 32.2516 17.0356 32.1412 17.0023C32.0308 16.969 31.9196 16.9384 31.8077 16.9105C31.6958 16.8827 31.5833 16.8575 31.4702 16.8352C31.357 16.8128 31.2434 16.7932 31.1293 16.7764C31.0152 16.7595 30.9007 16.7455 30.7859 16.7343C30.6711 16.723 30.5561 16.7146 30.4409 16.709C30.3257 16.7033 30.2104 16.7005 30.0951 16.7005C29.9797 16.7005 29.8644 16.7033 29.7492 16.709C29.634 16.7146 29.5189 16.723 29.4041 16.7343C29.2893 16.7455 29.1749 16.7595 29.0608 16.7764C28.9467 16.7932 28.8331 16.8128 28.7199 16.8352C28.6068 16.8575 28.4943 16.8827 28.3824 16.9105C28.2704 16.9384 28.1593 16.969 28.0489 17.0023C27.9385 17.0356 27.829 17.0715 27.7204 17.1102C27.6118 17.1488 27.5042 17.1901 27.3976 17.2339C27.291 17.2778 27.1856 17.3243 27.0813 17.3733C26.9771 17.4224 26.874 17.4739 26.7723 17.528C26.6706 17.582 26.5702 17.6385 26.4713 17.6975C26.3723 17.7565 26.2749 17.8178 26.179 17.8815C26.0831 17.9452 25.9888 18.0112 25.8961 18.0796C25.8035 18.1479 25.7125 18.2184 25.6234 18.2912C25.5342 18.3639 25.4469 18.4388 25.3614 18.5158C25.2759 18.5928 25.1924 18.6719 25.1109 18.753C25.0293 18.8341 24.9498 18.9171 24.8724 19.0021C24.7949 19.0871 24.7195 19.1739 24.6463 19.2625C24.5732 19.3512 24.5022 19.4416 24.4335 19.5337C24.3648 19.6258 24.2984 19.7196 24.2343 19.8149C24.1702 19.9102 24.1085 20.0071 24.0492 20.1055C23.9899 20.2038 23.933 20.3036 23.8786 20.4047C23.8242 20.5059 23.7724 20.6083 23.7231 20.712C23.6738 20.8156 23.627 20.9205 23.5829 21.0264C23.5388 21.1324 23.4973 21.2393 23.4584 21.3473C23.4195 21.4553 23.3833 21.5641 23.3498 21.6739C23.3164 21.7837 23.2856 21.8941 23.2576 22.0054C23.2296 22.1166 23.2043 22.2285 23.1818 22.341C23.1593 22.4535 23.1396 22.5664 23.1226 22.6799C23.1057 22.7933 23.0916 22.9071 23.0803 23.0212C23.069 23.1354 23.0605 23.2497 23.0548 23.3643C23.0492 23.4788 23.0463 23.5934 23.0463 23.7081C23.0463 23.9444 23.0583 24.1801 23.0823 24.4152C23.1063 24.6503 23.1422 24.8836 23.1899 25.115C23.2376 25.3465 23.297 25.575 23.3679 25.8005C23.4389 26.0261 23.5212 26.2475 23.6146 26.4648C23.7082 26.682 23.8125 26.894 23.9275 27.1008C24.0426 27.3075 24.1679 27.5079 24.3033 27.7021C24.4388 27.8963 24.5838 28.0832 24.7383 28.2627C24.8928 28.4424 25.056 28.6137 25.2279 28.7769L21.0698 33.9162C20.2153 34.9724 20.9622 36.5459 22.3172 36.5552H19.9695C18.612 36.5552 17.8565 34.9857 18.7032 33.9247L23.5416 27.8616C23.352 27.6793 23.1721 27.4878 23.0018 27.2871C22.8315 27.0864 22.6717 26.8775 22.5223 26.6605C22.373 26.4435 22.2349 26.2195 22.1081 25.9884C21.9813 25.7573 21.8663 25.5203 21.7632 25.2775C21.6601 25.0347 21.5694 24.7873 21.4912 24.5352C21.413 24.2832 21.3476 24.0278 21.2949 23.7691C21.2423 23.5104 21.2028 23.2496 21.1764 22.9869C21.15 22.7241 21.1367 22.4607 21.1367 22.1966C21.1367 22.0783 21.1394 21.9599 21.1446 21.8417C21.15 21.7235 21.158 21.6054 21.1686 21.4875C21.1793 21.3697 21.1925 21.2521 21.2085 21.1348C21.2244 21.0175 21.2429 20.9007 21.2641 20.7843C21.2853 20.6679 21.3091 20.552 21.3354 20.4366C21.3618 20.3213 21.3908 20.2066 21.4223 20.0926C21.4539 19.9786 21.488 19.8654 21.5246 19.7529C21.5613 19.6405 21.6004 19.5289 21.6421 19.4182C21.6837 19.3076 21.7278 19.1979 21.7744 19.0893C21.821 18.9806 21.8701 18.8731 21.9215 18.7667C21.9729 18.6603 22.0266 18.5551 22.0828 18.4511C22.139 18.3472 22.1975 18.2446 22.2583 18.1433C22.319 18.042 22.382 17.9422 22.4473 17.8438C22.5126 17.7454 22.58 17.6485 22.6497 17.5532C22.7193 17.4579 22.791 17.3642 22.8648 17.2722C22.9387 17.1801 23.0145 17.0898 23.0924 17.0013C23.1703 16.9127 23.2502 16.8259 23.3319 16.741C23.4138 16.6561 23.4974 16.5731 23.583 16.492C23.6685 16.4109 23.7558 16.3318 23.8449 16.2547C23.934 16.1776 24.0248 16.1025 24.1172 16.0296C24.2097 15.9566 24.3037 15.8858 24.3994 15.8171C24.4951 15.7485 24.5922 15.682 24.6908 15.6178C24.7895 15.5536 24.8895 15.4916 24.9909 15.432C25.0924 15.3723 25.1951 15.315 25.2991 15.2601C25.4031 15.2051 25.5083 15.1526 25.6146 15.1024C25.721 15.0522 25.8285 15.0045 25.937 14.9593C26.0455 14.9141 26.155 14.8713 26.2654 14.8311C26.3758 14.7908 26.4871 14.7532 26.5992 14.718C26.7114 14.6829 26.8243 14.6503 26.9379 14.6203C27.0514 14.5903 27.1657 14.5629 27.2805 14.5381C27.3953 14.5133 27.5106 14.4912 27.6265 14.4717C27.7423 14.4522 27.8585 14.4353 27.9751 14.4211C27.7681 14.1878 27.5494 13.9661 27.319 13.7559C27.0886 13.5457 26.8478 13.3482 26.5966 13.1635C26.3454 12.9788 26.0852 12.8079 25.8159 12.6507C25.5467 12.4935 25.2699 12.351 24.9857 12.2231C24.7014 12.0952 24.4111 11.9826 24.115 11.8855C23.8188 11.7883 23.5184 11.707 23.2137 11.6416C22.909 11.5762 22.6016 11.527 22.2917 11.4941C21.9818 11.4613 21.671 11.4448 21.3593 11.4448C21.2145 11.4448 21.0698 11.4484 20.9251 11.4555C20.7805 11.4626 20.6361 11.4733 20.492 11.4875C20.3478 11.5017 20.2041 11.5195 20.0609 11.5407C19.9176 11.562 19.7749 11.5868 19.6328 11.6151C19.4908 11.6434 19.3496 11.6752 19.209 11.7104C19.0686 11.7457 18.929 11.7843 18.7904 11.8264C18.6519 11.8685 18.5144 11.914 18.378 11.9629C18.2417 12.0118 18.1066 12.0639 17.9728 12.1194C17.839 12.1749 17.7066 12.2337 17.5756 12.2957C17.4447 12.3577 17.3155 12.4229 17.1877 12.4913C17.06 12.5597 16.934 12.6311 16.8098 12.7057C16.6856 12.7803 16.5632 12.8578 16.4428 12.9384C16.3224 13.019 16.204 13.1025 16.0877 13.1889C15.9714 13.2753 15.8572 13.3645 15.7453 13.4565C15.6333 13.5485 15.5237 13.6432 15.4164 13.7406C15.3091 13.838 15.2042 13.938 15.1018 14.0406C14.9994 14.1432 14.8996 14.2482 14.8023 14.3556C14.705 14.4631 14.6105 14.5729 14.5186 14.685C14.4267 14.7971 14.3376 14.9114 14.2513 15.0279C14.1651 15.1444 14.0817 15.263 14.0013 15.3836C13.9208 15.5042 13.8433 15.6267 13.7689 15.7511C13.6944 15.8755 13.623 16.0017 13.5548 16.1296C13.4865 16.2575 13.4214 16.387 13.3595 16.5181C13.2976 16.6492 13.2389 16.7818 13.1835 16.9158C13.1281 17.0498 13.0759 17.1851 13.0272 17.3216C12.9784 17.4582 12.9329 17.5959 12.8909 17.7347C12.8489 17.8735 12.8102 18.0132 12.775 18.1539C12.7398 18.2946 12.7081 18.4361 12.6799 18.5783C12.6516 18.7206 12.6269 18.8635 12.6056 19.0069C12.5844 19.1504 12.5667 19.2943 12.5525 19.4387C12.5383 19.583 12.5276 19.7276 12.5205 19.8725C12.5134 20.0173 12.5098 20.1623 12.5098 20.3074C12.5098 20.6062 12.5249 20.9043 12.555 21.2016C12.5851 21.4989 12.6301 21.794 12.6901 22.0867C12.75 22.3795 12.8245 22.6685 12.9136 22.9537C13.0027 23.2389 13.1059 23.5189 13.2233 23.7937C13.3407 24.0684 13.4716 24.3365 13.6161 24.598C13.7606 24.8595 13.9179 25.1131 14.0879 25.3586C14.258 25.6041 14.4401 25.8405 14.634 26.0676C14.828 26.2947 15.0329 26.5115 15.2487 26.7178L9.46351 33.9208C8.61197 34.981 9.36673 36.5553 10.7266 36.5553H31.2545H31.2608ZM16.2481 19.0363C16.2481 19.0746 16.2462 19.1127 16.2424 19.1508C16.2386 19.1889 16.233 19.2266 16.2255 19.2642C16.218 19.3017 16.2086 19.3387 16.1975 19.3753C16.1863 19.4119 16.1734 19.4479 16.1586 19.4833C16.1439 19.5186 16.1275 19.5531 16.1094 19.5868C16.0912 19.6206 16.0715 19.6534 16.0501 19.6852C16.0287 19.717 16.0058 19.7477 15.9814 19.7772C15.957 19.8068 15.9312 19.8351 15.904 19.8622C15.8768 19.8892 15.8483 19.9149 15.8185 19.9391C15.7888 19.9634 15.7579 19.9861 15.7259 20.0074C15.694 20.0287 15.661 20.0483 15.6271 20.0663C15.5931 20.0843 15.5584 20.1007 15.5229 20.1153C15.4873 20.1299 15.4511 20.1428 15.4143 20.1539C15.3775 20.1651 15.3402 20.1744 15.3025 20.1818C15.2647 20.1893 15.2267 20.1949 15.1884 20.1986C15.1501 20.2024 15.1118 20.2042 15.0733 20.2042C15.0348 20.2042 14.9964 20.2024 14.9581 20.1986C14.9198 20.1949 14.8818 20.1893 14.8441 20.1818C14.8063 20.1744 14.7691 20.1651 14.7322 20.1539C14.6954 20.1428 14.6592 20.1299 14.6237 20.1153C14.5882 20.1007 14.5534 20.0843 14.5195 20.0663C14.4855 20.0483 14.4526 20.0287 14.4206 20.0074C14.3886 19.9861 14.3577 19.9634 14.328 19.9391C14.2983 19.9149 14.2698 19.8892 14.2426 19.8622C14.2154 19.8351 14.1896 19.8068 14.1652 19.7772C14.1408 19.7477 14.1178 19.717 14.0965 19.6852C14.0751 19.6534 14.0553 19.6206 14.0372 19.5868C14.0191 19.5531 14.0027 19.5186 13.9879 19.4833C13.9732 19.4479 13.9602 19.4119 13.9491 19.3753C13.9379 19.3387 13.9286 19.3017 13.9211 19.2642C13.9136 19.2266 13.9079 19.1889 13.9042 19.1508C13.9004 19.1127 13.8985 19.0746 13.8985 19.0363C13.8985 18.9981 13.9004 18.9599 13.9042 18.9218C13.9079 18.8838 13.9136 18.846 13.9211 18.8085C13.9286 18.7709 13.9379 18.7339 13.9491 18.6973C13.9602 18.6607 13.9732 18.6247 13.9879 18.5894C14.0027 18.554 14.0191 18.5195 14.0372 18.4858C14.0553 18.452 14.0751 18.4192 14.0965 18.3874C14.1178 18.3556 14.1408 18.3249 14.1652 18.2954C14.1896 18.2658 14.2154 18.2375 14.2426 18.2105C14.2698 18.1834 14.2983 18.1578 14.328 18.1335C14.3577 18.1092 14.3886 18.0865 14.4206 18.0652C14.4526 18.044 14.4855 18.0243 14.5195 18.0063C14.5534 17.9883 14.5882 17.9719 14.6237 17.9573C14.6592 17.9426 14.6954 17.9298 14.7322 17.9187C14.7691 17.9076 14.8063 17.8983 14.8441 17.8908C14.8818 17.8834 14.9198 17.8778 14.9581 17.874C14.9964 17.8703 15.0348 17.8684 15.0733 17.8684C15.1118 17.8684 15.1501 17.8703 15.1884 17.874C15.2267 17.8778 15.2647 17.8834 15.3025 17.8908C15.3402 17.8983 15.3775 17.9076 15.4143 17.9187C15.4511 17.9298 15.4873 17.9426 15.5229 17.9573C15.5584 17.9719 15.5931 17.9883 15.6271 18.0063C15.661 18.0243 15.694 18.044 15.7259 18.0652C15.7579 18.0865 15.7888 18.1092 15.8185 18.1335C15.8483 18.1578 15.8768 18.1834 15.904 18.2105C15.9312 18.2375 15.957 18.2658 15.9814 18.2954C16.0058 18.3249 16.0287 18.3556 16.0501 18.3874C16.0715 18.4192 16.0912 18.452 16.1094 18.4858C16.1275 18.5195 16.1439 18.554 16.1586 18.5894C16.1734 18.6247 16.1863 18.6607 16.1975 18.6973C16.2086 18.7339 16.218 18.7709 16.2255 18.8085C16.233 18.846 16.2386 18.8838 16.2424 18.9218C16.2462 18.9599 16.2481 18.9981 16.2481 19.0363ZM18.5976 20.2042C18.6361 20.2042 18.6745 20.2024 18.7128 20.1986C18.751 20.1949 18.7891 20.1893 18.8268 20.1818C18.8646 20.1744 18.9018 20.1651 18.9387 20.1539C18.9754 20.1428 19.0116 20.1299 19.0472 20.1153C19.0827 20.1007 19.1175 20.0843 19.1514 20.0663C19.1853 20.0483 19.2183 20.0287 19.2503 20.0074C19.2823 19.9861 19.3131 19.9634 19.3429 19.9391C19.3726 19.9149 19.4011 19.8892 19.4283 19.8622C19.4555 19.8351 19.4814 19.8068 19.5058 19.7772C19.5302 19.7477 19.553 19.717 19.5744 19.6852C19.5957 19.6534 19.6155 19.6206 19.6337 19.5868C19.6518 19.5531 19.6682 19.5186 19.683 19.4833C19.6977 19.4479 19.7106 19.4119 19.7218 19.3753C19.733 19.3387 19.7423 19.3017 19.7498 19.2642C19.7573 19.2266 19.763 19.1889 19.7668 19.1508C19.7705 19.1127 19.7724 19.0746 19.7724 19.0363C19.7724 18.9981 19.7705 18.9599 19.7668 18.9218C19.763 18.8838 19.7573 18.846 19.7498 18.8085C19.7423 18.7709 19.733 18.7339 19.7218 18.6973C19.7106 18.6607 19.6977 18.6247 19.683 18.5894C19.6682 18.554 19.6518 18.5195 19.6337 18.4858C19.6155 18.452 19.5957 18.4192 19.5744 18.3874C19.553 18.3556 19.5302 18.3249 19.5058 18.2954C19.4814 18.2658 19.4555 18.2375 19.4283 18.2105C19.4011 18.1834 19.3726 18.1578 19.3429 18.1335C19.3131 18.1092 19.2823 18.0865 19.2503 18.0652C19.2183 18.044 19.1853 18.0243 19.1514 18.0063C19.1175 17.9883 19.0827 17.9719 19.0472 17.9573C19.0116 17.9426 18.9754 17.9298 18.9387 17.9187C18.9018 17.9076 18.8646 17.8983 18.8268 17.8908C18.7891 17.8834 18.751 17.8778 18.7128 17.874C18.6745 17.8703 18.6361 17.8684 18.5976 17.8684C18.5591 17.8684 18.5208 17.8703 18.4825 17.874C18.4442 17.8778 18.4062 17.8834 18.3684 17.8908C18.3307 17.8983 18.2934 17.9076 18.2566 17.9187C18.2198 17.9298 18.1836 17.9426 18.148 17.9573C18.1125 17.9719 18.0778 17.9883 18.0438 18.0063C18.0099 18.0243 17.9769 18.044 17.9449 18.0652C17.913 18.0865 17.8821 18.1092 17.8524 18.1335C17.8226 18.1578 17.7941 18.1834 17.7669 18.2105C17.7397 18.2375 17.7139 18.2658 17.6895 18.2954C17.665 18.3249 17.6422 18.3556 17.6209 18.3874C17.5995 18.4192 17.5797 18.452 17.5616 18.4858C17.5434 18.5195 17.527 18.554 17.5122 18.5894C17.4975 18.6247 17.4846 18.6607 17.4734 18.6973C17.4623 18.7339 17.4529 18.7709 17.4454 18.8085C17.4379 18.846 17.4322 18.8838 17.4285 18.9218C17.4247 18.9599 17.4228 18.9981 17.4228 19.0363C17.4228 19.0746 17.4247 19.1127 17.4285 19.1508C17.4322 19.1889 17.4379 19.2266 17.4454 19.2642C17.4529 19.3017 17.4623 19.3387 17.4734 19.3753C17.4846 19.4119 17.4975 19.4479 17.5122 19.4833C17.527 19.5186 17.5434 19.5531 17.5616 19.5868C17.5797 19.6206 17.5995 19.6534 17.6209 19.6852C17.6422 19.717 17.665 19.7477 17.6895 19.7772C17.7139 19.8068 17.7397 19.8351 17.7669 19.8622C17.7941 19.8892 17.8226 19.9149 17.8524 19.9391C17.8821 19.9634 17.913 19.9861 17.9449 20.0074C17.9769 20.0287 18.0099 20.0483 18.0438 20.0663C18.0778 20.0843 18.1125 20.1007 18.148 20.1153C18.1836 20.1299 18.2198 20.1428 18.2566 20.1539C18.2934 20.1651 18.3307 20.1744 18.3684 20.1818C18.4062 20.1893 18.4442 20.1949 18.4825 20.1986C18.5208 20.2024 18.5591 20.2042 18.5976 20.2042ZM31.2698 23.1242C31.2698 23.1624 31.2679 23.2006 31.2642 23.2386C31.2604 23.2767 31.2547 23.3145 31.2472 23.352C31.2397 23.3895 31.2304 23.4266 31.2192 23.4632C31.208 23.4998 31.1951 23.5357 31.1804 23.5711C31.1657 23.6064 31.1492 23.641 31.1311 23.6747C31.1129 23.7084 31.0932 23.7412 31.0718 23.773C31.0505 23.8048 31.0276 23.8355 31.0032 23.8651C30.9788 23.8946 30.9529 23.9229 30.9257 23.95C30.8985 23.977 30.87 24.0027 30.8403 24.0269C30.8105 24.0512 30.7797 24.074 30.7477 24.0952C30.7157 24.1165 30.6828 24.1362 30.6488 24.1542C30.6149 24.1722 30.5802 24.1886 30.5446 24.2032C30.509 24.2178 30.4728 24.2307 30.436 24.2418C30.3992 24.2529 30.362 24.2622 30.3242 24.2696C30.2865 24.2771 30.2485 24.2827 30.2102 24.2865C30.1719 24.2902 30.1335 24.2921 30.095 24.2921C30.0566 24.2921 30.0182 24.2902 29.9799 24.2865C29.9416 24.2827 29.9036 24.2771 29.8659 24.2696C29.8281 24.2622 29.7908 24.2529 29.754 24.2418C29.7172 24.2307 29.681 24.2178 29.6454 24.2032C29.6099 24.1886 29.5752 24.1722 29.5413 24.1542C29.5073 24.1362 29.4743 24.1165 29.4424 24.0952C29.4103 24.074 29.3795 24.0512 29.3498 24.0269C29.32 24.0027 29.2915 23.977 29.2643 23.95C29.2371 23.9229 29.2113 23.8946 29.1869 23.8651C29.1625 23.8355 29.1396 23.8048 29.1182 23.773C29.0969 23.7412 29.0771 23.7084 29.059 23.6747C29.0408 23.641 29.0244 23.6064 29.0097 23.5711C28.995 23.5357 28.982 23.4998 28.9709 23.4632C28.9597 23.4266 28.9503 23.3895 28.9428 23.352C28.9353 23.3145 28.9297 23.2767 28.9259 23.2386C28.9221 23.2006 28.9202 23.1624 28.9202 23.1242C28.9202 23.0859 28.9221 23.0477 28.9259 23.0096C28.9297 22.9716 28.9353 22.9338 28.9428 22.8963C28.9503 22.8588 28.9597 22.8217 28.9709 22.7851C28.982 22.7485 28.995 22.7125 29.0097 22.6772C29.0244 22.6418 29.0408 22.6073 29.059 22.5736C29.0771 22.5399 29.0969 22.5071 29.1182 22.4753C29.1396 22.4435 29.1625 22.4128 29.1869 22.3833C29.2113 22.3537 29.2371 22.3253 29.2643 22.2983C29.2915 22.2712 29.32 22.2456 29.3498 22.2213C29.3795 22.1971 29.4103 22.1743 29.4424 22.1531C29.4743 22.1318 29.5073 22.1122 29.5413 22.0942C29.5752 22.0761 29.6099 22.0598 29.6454 22.0452C29.681 22.0305 29.7172 22.0176 29.754 22.0065C29.7908 21.9954 29.8281 21.9861 29.8659 21.9787C29.9036 21.9712 29.9416 21.9656 29.9799 21.9619C30.0182 21.9581 30.0566 21.9562 30.095 21.9562C30.1335 21.9562 30.1719 21.9581 30.2102 21.9619C30.2485 21.9656 30.2865 21.9712 30.3242 21.9787C30.362 21.9861 30.3992 21.9954 30.436 22.0065C30.4728 22.0176 30.509 22.0305 30.5446 22.0452C30.5802 22.0598 30.6149 22.0761 30.6488 22.0942C30.6828 22.1122 30.7157 22.1318 30.7477 22.1531C30.7797 22.1743 30.8105 22.1971 30.8403 22.2213C30.87 22.2456 30.8985 22.2712 30.9257 22.2983C30.9529 22.3253 30.9788 22.3537 31.0032 22.3833C31.0276 22.4128 31.0505 22.4435 31.0718 22.4753C31.0932 22.5071 31.1129 22.5399 31.1311 22.5736C31.1492 22.6073 31.1657 22.6418 31.1804 22.6772C31.1951 22.7125 31.208 22.7485 31.2192 22.7851C31.2304 22.8217 31.2397 22.8588 31.2472 22.8963C31.2547 22.9338 31.2604 22.9716 31.2642 23.0096C31.2679 23.0477 31.2698 23.0859 31.2698 23.1242ZM33.6194 24.2921C33.6578 24.2921 33.6962 24.2902 33.7345 24.2865C33.7728 24.2827 33.8108 24.2771 33.8485 24.2696C33.8863 24.2622 33.9235 24.2529 33.9604 24.2418C33.9972 24.2307 34.0334 24.2178 34.0689 24.2032C34.1044 24.1886 34.1392 24.1722 34.1732 24.1542C34.2071 24.1362 34.24 24.1165 34.272 24.0952C34.304 24.074 34.3349 24.0512 34.3647 24.0269C34.3944 24.0027 34.4228 23.977 34.45 23.95C34.4773 23.9229 34.5031 23.8946 34.5275 23.8651C34.5519 23.8355 34.5748 23.8048 34.5962 23.773C34.6175 23.7412 34.6373 23.7084 34.6555 23.6747C34.6736 23.641 34.69 23.6064 34.7047 23.5711C34.7194 23.5357 34.7324 23.4998 34.7436 23.4632C34.7547 23.4266 34.764 23.3895 34.7715 23.352C34.779 23.3145 34.7847 23.2767 34.7885 23.2386C34.7922 23.2006 34.7941 23.1624 34.7941 23.1242C34.7941 23.0859 34.7922 23.0477 34.7885 23.0096C34.7847 22.9716 34.779 22.9338 34.7715 22.8963C34.764 22.8588 34.7547 22.8217 34.7436 22.7851C34.7324 22.7485 34.7194 22.7125 34.7047 22.6772C34.69 22.6418 34.6736 22.6073 34.6555 22.5736C34.6373 22.5399 34.6175 22.5071 34.5962 22.4753C34.5748 22.4435 34.5519 22.4128 34.5275 22.3833C34.5031 22.3537 34.4773 22.3253 34.45 22.2983C34.4228 22.2712 34.3944 22.2456 34.3647 22.2213C34.3349 22.1971 34.304 22.1743 34.272 22.1531C34.24 22.1318 34.2071 22.1122 34.1732 22.0942C34.1392 22.0761 34.1044 22.0598 34.0689 22.0452C34.0334 22.0305 33.9972 22.0176 33.9604 22.0065C33.9235 21.9954 33.8863 21.9861 33.8485 21.9787C33.8108 21.9712 33.7728 21.9656 33.7345 21.9619C33.6962 21.9581 33.6578 21.9562 33.6194 21.9562C33.5809 21.9562 33.5425 21.9581 33.5042 21.9619C33.4659 21.9656 33.4279 21.9712 33.3901 21.9787C33.3524 21.9861 33.3152 21.9954 33.2784 22.0065C33.2415 22.0176 33.2053 22.0305 33.1698 22.0452C33.1343 22.0598 33.0995 22.0761 33.0656 22.0942C33.0317 22.1122 32.9987 22.1318 32.9667 22.1531C32.9347 22.1743 32.9038 22.1971 32.8741 22.2213C32.8443 22.2456 32.8159 22.2712 32.7887 22.2983C32.7615 22.3253 32.7357 22.3537 32.7113 22.3833C32.6868 22.4128 32.6639 22.4435 32.6426 22.4753C32.6212 22.5071 32.6014 22.5399 32.5833 22.5736C32.5651 22.6073 32.5487 22.6418 32.534 22.6772C32.5193 22.7125 32.5063 22.7485 32.4951 22.7851C32.484 22.8217 32.4746 22.8588 32.4671 22.8963C32.4596 22.9338 32.454 22.9716 32.4503 23.0096C32.4465 23.0477 32.4446 23.0859 32.4446 23.1242C32.4446 23.1624 32.4465 23.2006 32.4503 23.2386C32.454 23.2767 32.4596 23.3145 32.4671 23.352C32.4746 23.3895 32.484 23.4266 32.4951 23.4632C32.5063 23.4998 32.5193 23.5357 32.534 23.5711C32.5487 23.6064 32.5651 23.641 32.5833 23.6747C32.6014 23.7084 32.6212 23.7412 32.6426 23.773C32.6639 23.8048 32.6868 23.8355 32.7113 23.8651C32.7357 23.8946 32.7615 23.9229 32.7887 23.95C32.8159 23.977 32.8443 24.0027 32.8741 24.0269C32.9038 24.0512 32.9347 24.074 32.9667 24.0952C32.9987 24.1165 33.0317 24.1362 33.0656 24.1542C33.0995 24.1722 33.1343 24.1886 33.1698 24.2032C33.2053 24.2178 33.2415 24.2307 33.2784 24.2418C33.3152 24.2529 33.3524 24.2622 33.3901 24.2696C33.4279 24.2771 33.4659 24.2827 33.5042 24.2865C33.5425 24.2902 33.5809 24.2921 33.6194 24.2921Z" fill="white"/>
</g>
</g>
<defs>
<filter id="filter0_d_368_4346" x="9.10352" y="11.4448" width="30.2068" height="25.9379" filterUnits="userSpaceOnUse" color-interpolation-filters="sRGB">
<feFlood flood-opacity="0" result="BackgroundImageFix"/>
<feColorMatrix in="SourceAlpha" type="matrix" values="0 0 0 0 0 0 0 0 0 0 0 0 0 0 0 0 0 0 127 0" result="hardAlpha"/>
<feOffset dx="0.413793" dy="0.827586"/>
<feComposite in2="hardAlpha" operator="out"/>
<feColorMatrix type="matrix" values="0 0 0 0 0.305556 0 0 0 0 0.833333 0 0 0 0 0.548333 0 0 0 1 0"/>
<feBlend mode="normal" in2="BackgroundImageFix" result="effect1_dropShadow_368_4346"/>
<feBlend mode="normal" in="SourceGraphic" in2="effect1_dropShadow_368_4346" result="shape"/>
</filter>
<clipPath id="clip0_368_4346">
<rect width="48" height="48" rx="16.5517" fill="white"/>
</clipPath>
</defs>
</svg>
