<svg width="48" height="48" viewBox="0 0 48 48" fill="none" xmlns="http://www.w3.org/2000/svg">
<g clip-path="url(#clip0_368_4354)">
<rect width="48" height="48" rx="16.5517" fill="#1A1A1A"/>
<path d="M52.7688 21.2073C44.9225 19.7361 33.9603 12.6884 36.1839 2.96259C38.7878 -8.42605 50.5729 5.84291 36.184 8.59317C23.388 11.0389 21.9944 -5.32941 23.3451 -7.80779" stroke="white" stroke-opacity="0.1" stroke-width="1.24138"/>
<path d="M-11.8652 24.0512C-3.902 23.4889 8.48691 27.533 8.79692 37.5049C9.15992 49.1818 -5.85256 38.3597 7.37199 32.0577C19.1325 26.4533 32.7578 47.7491 32.0783 50.4887" stroke="white" stroke-opacity="0.1" stroke-width="1.24138"/>
<g filter="url(#filter0_d_368_4354)">
<path fill-rule="evenodd" clip-rule="evenodd" d="M38.2469 19.9202L38.305 20.0946C38.389 20.4402 38.4472 20.7762 38.4795 21.125C38.5796 23.5283 36.6124 26.0349 34.2511 26.4839C32.1644 26.8748 30.2392 26.0058 29.0958 24.5135C28.8503 24.1937 28.3851 24.2099 28.1396 24.5135C27.1835 25.7571 25.6782 26.555 23.9985 26.555C22.3188 26.555 20.8135 25.7604 19.8574 24.5135C19.6119 24.2099 19.1339 24.2099 18.9013 24.5135C17.6867 26.106 15.571 26.9749 13.3131 26.3676C11.039 25.7442 9.51758 23.6737 9.51758 21.3124C9.51758 20.8925 9.55957 20.5274 9.67586 20.0946C9.67764 20.09 9.67958 20.0849 9.68164 20.0796C9.69823 20.0366 9.72251 19.9737 9.734 19.9363L13.4972 12.116C13.9042 11.2633 14.7731 10.7271 15.7131 10.7271H32.2064C33.1464 10.7271 34.0024 11.2762 34.4223 12.116L38.2469 19.9202ZM28.2237 26.1932C28.4402 26.0026 28.8181 26.0188 29.0345 26.2061C30.7594 27.7243 33.2499 28.2605 35.7113 27.3044V34.5497C35.7113 36.2294 34.3062 37.2727 32.6265 37.2727H15.3805C13.7008 37.2727 12.4119 36.2294 12.4119 34.5497V27.3108C12.4119 27.3397 12.5553 27.3813 12.6553 27.4104L12.6574 27.411C14.9896 28.1798 17.3186 27.6274 18.9854 26.1803C19.218 25.9929 19.5507 25.9929 19.7671 26.1803C20.9267 27.1946 22.4158 27.7728 23.9954 27.7728C25.5879 27.7728 27.0641 27.1913 28.2237 26.1932ZM19.1437 36.3134C19.4925 36.3134 19.7962 36.0388 19.7962 35.69V28.3057C19.7962 27.9569 19.4925 27.6823 19.1437 27.6823C18.7948 27.6823 18.4912 27.9569 18.4912 28.3057V35.69C18.4912 36.0388 18.7948 36.3134 19.1437 36.3134Z" fill="white"/>
</g>
</g>
<defs>
<filter id="filter0_d_368_4354" x="9.51758" y="10.7271" width="29.7934" height="27.3735" filterUnits="userSpaceOnUse" color-interpolation-filters="sRGB">
<feFlood flood-opacity="0" result="BackgroundImageFix"/>
<feColorMatrix in="SourceAlpha" type="matrix" values="0 0 0 0 0 0 0 0 0 0 0 0 0 0 0 0 0 0 127 0" result="hardAlpha"/>
<feOffset dx="0.827586" dy="0.827586"/>
<feComposite in2="hardAlpha" operator="out"/>
<feColorMatrix type="matrix" values="0 0 0 0 0.305556 0 0 0 0 0.833333 0 0 0 0 0.548333 0 0 0 1 0"/>
<feBlend mode="normal" in2="BackgroundImageFix" result="effect1_dropShadow_368_4354"/>
<feBlend mode="normal" in="SourceGraphic" in2="effect1_dropShadow_368_4354" result="shape"/>
</filter>
<clipPath id="clip0_368_4354">
<rect width="48" height="48" rx="16.5517" fill="white"/>
</clipPath>
</defs>
</svg>
