<svg width="149" height="149" viewBox="0 0 149 149" fill="none" xmlns="http://www.w3.org/2000/svg">
<path d="M95.6575 22.1924C94.5507 21.7653 93.5475 21.802 92.6274 22.2946C91.7538 22.7581 91.1086 23.5452 90.6815 24.652C90.2583 25.7485 90.2074 26.765 90.5431 27.6952C90.8976 28.668 91.6161 29.3691 92.7126 29.7923C93.4914 30.0929 94.2326 30.1553 94.9284 29.9999C95.0627 30.4756 95.1891 30.9718 95.3178 31.4925L96.0571 31.2244C95.9347 30.718 95.8083 30.2218 95.6637 29.7421C95.6819 29.7256 95.7103 29.713 95.7387 29.7004C96.602 29.2329 97.2535 28.46 97.6807 27.3533C98.1118 26.2363 98.1524 25.2158 97.827 24.2896C97.4764 23.3065 96.7437 22.6117 95.6575 22.1924ZM95.3688 22.9405C96.2091 23.2648 96.7581 23.7947 97.012 24.5402C97.2493 25.2676 97.2003 26.0964 96.8404 27.029C96.5042 27.9 96.0263 28.528 95.4068 28.9129C95.1907 28.2526 94.9525 27.619 94.7063 27.006L94.0183 27.2938C94.2621 27.8824 94.4861 28.5223 94.6943 29.2031C94.1737 29.3319 93.6059 29.2776 93.0013 29.0442C92.161 28.7199 91.6056 28.1759 91.3557 27.4201C91.1184 26.6927 91.1737 25.8781 91.5218 24.9763C91.8738 24.0642 92.38 23.4236 93.0445 23.0443C93.7516 22.6461 94.5284 22.6162 95.3688 22.9405Z" fill="black" fill-opacity="0.7"/>
<path d="M100.996 24.7675L97.3239 31.6978L98.1101 32.1144L101.782 25.1841L100.996 24.7675Z" fill="black" fill-opacity="0.7"/>
<path d="M104.779 26.8057L100.295 33.2404L101.034 33.7553L104.721 28.4652L104.748 28.484L104.72 36.3239L105.477 36.8514L109.961 30.4168L109.222 29.9018L105.574 35.1378L105.547 35.119L105.554 27.3458L104.779 26.8057Z" fill="black" fill-opacity="0.7"/>
<path d="M115.236 35.0064C114.419 34.192 113.487 33.8361 112.43 33.9465C111.444 34.0334 110.552 34.493 109.73 35.3176C108.907 36.1422 108.458 37.0438 108.39 38.0148C108.314 39.0558 108.719 40.0183 109.598 40.8947C110.057 41.3522 110.547 41.7165 111.076 41.9954C111.581 42.2509 112.07 42.4133 112.552 42.4592L114.817 40.1877L112.444 37.8223L111.893 38.3746L113.636 40.1118L112.224 41.5276C111.906 41.4582 111.564 41.3344 111.214 41.1408C110.857 40.9394 110.522 40.6991 110.219 40.3966C109.495 39.6754 109.168 38.9147 109.229 38.1223C109.29 37.3766 109.669 36.6537 110.367 35.9535C111.081 35.2379 111.818 34.8406 112.595 34.7773C113.379 34.7062 114.063 34.9693 114.67 35.5742C115.16 36.0628 115.44 36.575 115.503 37.1186C115.566 37.6312 115.435 38.1362 115.102 38.6416L115.74 39.2776C116.243 38.57 116.46 37.8706 116.389 37.1639C116.318 36.4106 115.928 35.6966 115.236 35.0064Z" fill="black" fill-opacity="0.7"/>
<path d="M122.484 44.1101L116.714 43.0561L120.026 40.6819L119.501 39.9498L113.127 44.5192L113.652 45.2512L115.884 43.6513L117.531 43.9703L116.378 49.0544L117.082 50.0365L118.369 44.14L123.168 45.0653L122.484 44.1101Z" fill="black" fill-opacity="0.7"/>
<path d="M124.364 47.1737L117.369 50.7202L119.966 55.8442L120.662 55.4915L118.472 51.1709L121.039 49.8695L123.025 53.7884L123.721 53.4358L121.734 49.5169L124.076 48.3297L126.182 52.4838L126.877 52.1311L124.364 47.1737Z" fill="black" fill-opacity="0.7"/>
<path d="M104.966 123.615C105.971 122.985 106.542 122.16 106.699 121.128C106.852 120.151 106.608 119.163 105.978 118.158C105.353 117.162 104.57 116.512 103.624 116.224C102.633 115.925 101.641 116.08 100.645 116.704C99.9379 117.148 99.4438 117.704 99.1514 118.354C98.69 118.177 98.217 117.98 97.723 117.772L97.4947 118.524C97.9736 118.73 98.4466 118.926 98.9172 119.097C98.9196 119.122 98.9127 119.152 98.9057 119.182C98.7628 120.154 98.9912 121.138 99.6215 122.143C100.258 123.158 101.05 123.802 101.987 124.096C102.984 124.404 103.979 124.234 104.966 123.615ZM104.54 122.936C103.777 123.415 103.023 123.537 102.274 123.293C101.55 123.048 100.916 122.512 100.385 121.665C99.8886 120.874 99.6721 120.115 99.735 119.388C100.393 119.611 101.043 119.8 101.682 119.97L101.863 119.247C101.246 119.089 100.599 118.885 99.9296 118.644C100.138 118.15 100.522 117.728 101.071 117.384C101.834 116.905 102.603 116.786 103.357 117.039C104.082 117.285 104.701 117.817 105.215 118.636C105.734 119.465 105.943 120.254 105.849 121.013C105.744 121.818 105.303 122.458 104.54 122.936Z" fill="black" fill-opacity="0.7"/>
<path d="M99.6532 126.369L96.3116 119.273L95.5067 119.652L98.8483 126.748L99.6532 126.369Z" fill="black" fill-opacity="0.7"/>
<path d="M95.7791 128.165L93.3133 120.719L92.4583 121.003L94.4855 127.123L94.4542 127.134L88.1934 122.415L87.3175 122.705L89.7833 130.15L90.6384 129.867L88.6319 123.809L88.6632 123.798L94.8823 128.462L95.7791 128.165Z" fill="black" fill-opacity="0.7"/>
<path d="M83.0283 131.622C84.1693 131.454 85.012 130.919 85.5546 130.006C86.0742 129.163 86.239 128.173 86.0691 127.021C85.8991 125.869 85.4445 124.97 84.7068 124.335C83.9176 123.652 82.9036 123.402 81.6756 123.583C81.0345 123.678 80.4496 123.853 79.9102 124.11C79.4034 124.362 78.9807 124.658 78.6561 125.017L79.1243 128.19L82.4386 127.701L82.3248 126.929L79.8906 127.288L79.5988 125.311C79.8448 125.097 80.1484 124.897 80.5127 124.732C80.8879 124.565 81.2803 124.441 81.7041 124.378C82.7148 124.229 83.5203 124.421 84.1193 124.944C84.6808 125.438 85.0337 126.174 85.178 127.152C85.3255 128.152 85.2035 128.981 84.7902 129.641C84.3785 130.313 83.7589 130.704 82.9113 130.829C82.2267 130.93 81.6484 130.849 81.1749 130.574C80.7263 130.319 80.3998 129.911 80.1937 129.342L79.3026 129.474C79.5689 130.301 80.0004 130.892 80.6095 131.257C81.2559 131.651 82.0612 131.765 83.0283 131.622Z" fill="black" fill-opacity="0.7"/>
<path d="M71.4439 131.995L75.7379 128L75.6612 132.075L76.5617 132.092L76.7095 124.25L75.8089 124.233L75.7572 126.979L74.5164 128.109L71.1304 124.145L69.9223 124.122L73.8794 128.679L70.2687 131.973L71.4439 131.995Z" fill="black" fill-opacity="0.7"/>
<path d="M67.9242 131.68L69.2642 123.953L63.6038 122.971L63.4705 123.739L68.2435 124.567L67.7518 127.403L63.4226 126.652L63.2893 127.42L67.6185 128.171L67.17 130.758L62.581 129.962L62.4478 130.73L67.9242 131.68Z" fill="black" fill-opacity="0.7"/>
<path d="M18.3054 81.6981C18.4435 82.8763 18.9436 83.7467 19.8084 84.3311C20.6257 84.8878 21.6228 85.0917 22.8011 84.9536C23.9685 84.8168 24.8914 84.3879 25.5579 83.6573C26.2532 82.8901 26.5386 81.9276 26.4018 80.7603C26.3046 79.9311 26.0142 79.2463 25.5524 78.7032C25.9106 78.3626 26.2907 78.0194 26.6913 77.6628L26.1095 77.1338C25.7185 77.4782 25.3385 77.8213 24.9815 78.1729C24.9584 78.1645 24.934 78.1452 24.9096 78.126C24.0936 77.5801 23.1061 77.3641 21.9278 77.5022C20.7387 77.6415 19.817 78.0813 19.1493 78.8011C18.443 79.5695 18.1699 80.5416 18.3054 81.6981ZM19.1018 81.6047C18.997 80.7101 19.2097 79.9774 19.7509 79.4052C20.2838 78.8561 21.0399 78.5131 22.0327 78.3968C22.96 78.2881 23.7384 78.4181 24.3677 78.7867C23.8843 79.2857 23.4349 79.7919 23.0073 80.2954L23.5827 80.7699C23.9897 80.2798 24.4514 79.7833 24.9566 79.2817C25.3132 79.6823 25.5299 80.2099 25.6053 80.8536C25.7102 81.7482 25.4878 82.4931 24.9357 83.0666C24.4028 83.6157 23.6563 83.9465 22.6963 84.059C21.7253 84.1728 20.9226 84.0235 20.2772 83.6125C19.5952 83.1727 19.2066 82.4993 19.1018 81.6047Z" fill="black" fill-opacity="0.7"/>
<path d="M18.0899 75.7883L25.9328 75.8172L25.936 74.9275L18.0932 74.8986L18.0899 75.7883Z" fill="black" fill-opacity="0.7"/>
<path d="M18.1278 71.4198L25.9089 72.4025L26.0218 71.5089L19.6247 70.7009L19.6288 70.6682L26.5847 67.0516L26.7003 66.1362L18.9192 65.1535L18.8063 66.0471L25.138 66.8468L25.1339 66.8794L18.2461 70.4825L18.1278 71.4198Z" fill="black" fill-opacity="0.7"/>
<path d="M20.5683 58.1647C20.2244 59.2656 20.3404 60.2571 20.927 61.1423C21.4605 61.9764 22.281 62.5549 23.3924 62.9021C24.5037 63.2493 25.5109 63.2302 26.4034 62.8415C27.3613 62.4273 28.027 61.6225 28.3971 60.4377C28.5904 59.8191 28.6866 59.2163 28.6892 58.6187C28.6819 58.0525 28.5993 57.5434 28.4171 57.0952L25.3555 56.1388L24.3566 59.3366L25.101 59.5692L25.8347 57.2206L27.7429 57.8167C27.8288 58.1312 27.8773 58.4916 27.8675 58.8913C27.8544 59.3015 27.7962 59.7091 27.6684 60.118C27.3638 61.0931 26.841 61.7354 26.1104 62.048C25.421 62.339 24.6046 62.3371 23.6609 62.0424C22.6963 61.741 22.003 61.2713 21.5875 60.6121C21.1615 59.9496 21.0782 59.2216 21.3337 58.4038C21.54 57.7433 21.8643 57.2577 22.3171 56.9503C22.7423 56.6574 23.2508 56.54 23.853 56.6016L24.1216 55.7418C23.2612 55.6226 22.5411 55.7544 21.9474 56.1444C21.3125 56.5559 20.8598 57.2316 20.5683 58.1647Z" fill="black" fill-opacity="0.7"/>
<path d="M25.1509 47.7182L26.9058 53.3146L23.262 51.4897L22.8586 52.2951L29.8712 55.8072L30.2746 55.0018L27.8192 53.7721L27.3339 52.1654L32.3701 50.8178L32.9111 49.7375L27.0938 51.3449L25.6772 46.6673L25.1509 47.7182Z" fill="black" fill-opacity="0.7"/>
<path d="M27.0496 44.4897L33.4333 49.0461L36.7708 44.3701L36.136 43.917L33.3218 47.8598L30.9793 46.1879L33.5319 42.6116L32.8971 42.1585L30.3445 45.7348L28.2077 44.2096L30.9135 40.4188L30.2787 39.9657L27.0496 44.4897Z" fill="black" fill-opacity="0.7"/>
</svg>
