<svg width="88" height="88" viewBox="0 0 88 88" fill="none" xmlns="http://www.w3.org/2000/svg">
<path d="M82 44C82 64.9868 64.9868 82 44 82C23.0132 82 6 64.9868 6 44C6 23.0132 23.0132 6 44 6C64.9868 6 82 23.0132 82 44Z" fill="#0D0D0D"/>
<path fill-rule="evenodd" clip-rule="evenodd" d="M88 44C88 68.3005 68.3005 88 44 88C19.6995 88 0 68.3005 0 44C0 19.6995 19.6995 0 44 0C68.3005 0 88 19.6995 88 44ZM44 82C64.9868 82 82 64.9868 82 44C82 23.0132 64.9868 6 44 6C23.0132 6 6 23.0132 6 44C6 64.9868 23.0132 82 44 82Z" fill="white"/>
<path d="M45.8038 31.1396V21.3141C33.2036 21.3141 23 31.6304 23 43.7718C23 55.9139 33.2041 66.2307 45.8038 66.2307V56.4052C39.0784 56.4052 32.9767 52.1942 32.9767 43.7724C32.9767 35.3505 39.0784 31.1396 45.8038 31.1396Z" fill="white"/>
<path d="M59.6342 32.0564C58.9006 32.0564 58.1742 31.9134 57.4964 31.6356C56.8186 31.3578 56.2028 30.9506 55.684 30.4372C55.1653 29.9239 54.7538 29.3144 54.4731 28.6437C54.1923 27.973 54.0479 27.2541 54.0479 26.5282C54.0479 25.8022 54.1923 25.0834 54.4731 24.4126C54.7538 23.7419 55.1653 23.1325 55.684 22.6192C56.2028 22.1058 56.8186 21.6986 57.4964 21.4208C58.1742 21.143 58.9006 21 59.6342 21C61.1159 21 62.5367 21.5824 63.5844 22.6192C64.632 23.6559 65.2206 25.062 65.2206 26.5282C65.2206 27.9944 64.632 29.4005 63.5844 30.4372C62.5367 31.4739 61.1159 32.0564 59.6342 32.0564Z" fill="#A6E385"/>
<path d="M59.6342 66.5448C58.1526 66.5448 56.7317 65.9624 55.684 64.9257C54.6364 63.8889 54.0479 62.4828 54.0479 61.0167C54.0479 59.5505 54.6364 58.1444 55.684 57.1076C56.7317 56.0709 58.1526 55.4885 59.6342 55.4885C61.1159 55.4885 62.5367 56.0709 63.5844 57.1076C64.632 58.1444 65.2206 59.5505 65.2206 61.0167C65.2206 62.4828 64.632 63.8889 63.5844 64.9257C62.5367 65.9624 61.1159 66.5448 59.6342 66.5448Z" fill="#FF318B"/>
<path d="M46.2617 56.0223V31.5224C53.1021 31.5224 58.7923 36.9668 58.6376 43.7714C58.7923 50.5779 53.1027 56.0223 46.2617 56.0223Z" fill="white"/>
</svg>
